<?xml version="1.0" standalone="no"?>
<!DOCTYPE svg PUBLIC "-//W3C//DTD SVG 20010904//EN"
 "http://www.w3.org/TR/2001/REC-SVG-20010904/DTD/svg10.dtd">
<svg version="1.0" xmlns="http://www.w3.org/2000/svg"
 width="1200.000000pt" height="1200.000000pt" viewBox="0 0 1200.000000 1200.000000"
 preserveAspectRatio="xMidYMid meet">
<metadata>
Created by potrace 1.16, written by Peter Selinger 2001-2019
</metadata>
<g transform="translate(0.000000,1200.000000) scale(0.100000,-0.100000)"
fill="#000000" stroke="none">
<path d="M3347 9504 c-13 -22 -36 -59 -51 -82 -15 -24 -25 -46 -22 -49 3 -3
34 0 69 6 35 6 69 11 75 11 7 0 65 -79 129 -176 94 -140 114 -177 103 -184
-60 -35 -61 -27 8 -164 34 -70 62 -128 62 -130 0 -2 -40 -19 -90 -37 -49 -19
-90 -37 -90 -40 0 -7 170 -59 193 -59 32 0 17 -17 -30 -35 -148 -55 -394 -202
-558 -333 -186 -149 -382 -432 -615 -889 l-80 -157 -96 3 c-91 3 -96 2 -89
-16 29 -65 57 -163 69 -244 32 -202 49 -619 25 -619 -6 0 -59 21 -118 46 -129
57 -181 75 -181 66 0 -4 29 -41 65 -81 77 -87 110 -151 129 -246 16 -77 32
-275 23 -275 -3 0 -24 30 -46 68 -46 78 -82 115 -133 137 l-38 15 0 -182 c0
-183 -14 -316 -45 -441 -24 -92 -106 -254 -159 -311 l-46 -49 0 -1304 0 -1303
4190 0 4190 0 0 1355 0 1355 -57 45 c-212 167 -609 279 -1148 326 -178 15
-707 16 -935 0 -444 -30 -968 -94 -1370 -167 -74 -14 -293 -61 -487 -105 -573
-129 -872 -184 -1208 -221 -186 -20 -690 -17 -835 5 -345 54 -589 137 -750
257 -247 185 -380 438 -380 723 1 314 155 575 400 678 30 12 56 24 58 25 2 1
-1 11 -7 22 -14 26 -71 61 -124 77 l-41 12 40 26 c32 22 50 27 102 27 l63 0
-18 31 c-27 46 -83 89 -126 96 -37 6 -37 6 -20 25 28 31 210 116 297 138 157
40 329 22 435 -44 48 -31 136 -128 162 -179 19 -37 22 -38 37 -23 22 22 22
146 -1 199 -20 47 -12 47 76 2 131 -65 221 -150 277 -262 l28 -56 38 59 c21
32 52 97 68 144 28 79 31 95 31 219 l0 133 42 -5 c67 -7 168 -60 223 -117 l50
-51 10 26 c33 86 35 231 5 316 -8 22 -13 39 -11 39 2 0 33 -9 68 -20 77 -24
136 -71 169 -137 13 -26 25 -50 26 -52 12 -21 123 115 123 151 0 37 19 15 49
-56 26 -64 48 -140 68 -246 l5 -25 20 25 c32 38 68 122 82 192 l13 63 32 -50
c31 -49 56 -120 64 -180 l3 -30 19 40 c10 22 25 87 33 145 13 87 13 125 4 221
-41 408 -245 674 -686 890 -247 121 -480 178 -752 186 l-171 5 44 41 c50 46
105 150 129 247 17 67 24 303 10 318 -4 4 -26 -15 -49 -43 -54 -65 -219 -235
-228 -235 -4 0 -49 50 -99 110 -50 61 -96 110 -101 110 -5 0 -70 -40 -144 -90
-74 -49 -139 -91 -144 -92 -6 -2 -82 104 -170 236 l-159 238 -25 -38z m1073
-894 c323 -29 630 -160 920 -393 157 -126 305 -291 380 -422 l22 -40 -28 35
c-146 177 -259 282 -415 386 -174 116 -404 211 -602 249 -126 24 -130 17 -13
-25 421 -150 764 -422 961 -763 25 -44 19 -39 -81 59 -322 315 -651 511 -994
591 -131 30 -361 41 -495 24 -252 -34 -504 -131 -735 -286 -140 -93 -207 -149
-344 -283 -99 -98 -106 -103 -87 -64 125 248 392 547 631 707 185 124 405 202
632 224 120 12 122 12 248 1z m-103 -629 c120 -26 228 -64 328 -113 87 -44
220 -129 275 -177 33 -29 31 -28 -35 9 -146 83 -345 151 -545 186 -109 19
-418 23 -460 6 -25 -11 -25 -11 7 -11 159 -4 460 -69 628 -138 105 -43 300
-141 293 -148 -2 -2 -51 10 -108 26 -268 75 -508 112 -725 112 -311 -1 -579
-84 -819 -255 -148 -105 -327 -295 -458 -488 -15 -23 -15 -19 1 40 27 97 76
214 132 316 205 371 532 598 941 653 120 16 437 6 545 -18z m-663 -595 c-193
-97 -368 -208 -499 -317 -243 -203 -415 -454 -459 -674 l-13 -59 -19 29 c-15
23 -20 52 -23 141 -4 132 18 237 74 351 139 283 502 509 952 593 169 31 168
26 -13 -64z m-974 -245 c-35 -112 -73 -296 -92 -441 -19 -156 -16 -592 5 -749
19 -136 45 -251 57 -251 4 0 7 80 7 178 -1 192 14 302 57 416 l23 61 -5 -172
c-10 -360 48 -611 189 -823 99 -148 220 -249 467 -390 72 -41 127 -76 123 -78
-12 -4 -198 75 -271 115 -149 82 -351 236 -407 310 -41 53 -39 30 3 -39 49
-81 189 -221 281 -282 393 -257 1093 -392 1938 -373 284 6 186 -8 -156 -22
-481 -21 -950 19 -1359 115 -318 74 -588 207 -769 379 -150 142 -231 280 -281
480 -98 387 -76 842 61 1272 53 166 146 399 155 390 2 -1 -10 -45 -26 -96z
m494 -248 c-151 -210 -272 -578 -292 -887 l-8 -111 -28 85 c-34 101 -46 266
-27 376 29 168 134 349 297 512 57 56 105 102 108 102 3 0 -20 -35 -50 -77z
m-906 -1277 c65 -133 154 -257 271 -379 273 -282 615 -485 1086 -643 88 -29
154 -53 146 -54 -36 -1 -275 54 -374 87 -135 43 -312 118 -423 178 -183 100
-383 248 -454 336 -17 22 -34 38 -37 36 -9 -10 60 -144 121 -236 205 -307 530
-538 1011 -718 105 -39 69 -35 -100 12 -650 181 -985 467 -1175 1004 l-34 94
-16 -49 c-46 -133 -138 -281 -242 -388 l-69 -71 32 53 c109 184 175 436 186
712 5 126 8 159 16 140 6 -14 30 -65 55 -114z m4942 -315 c0 -4 -28 -11 -62
-15 -101 -11 -343 -62 -476 -100 -132 -39 -220 -71 -526 -196 -349 -142 -680
-243 -951 -291 -138 -24 -421 -36 -505 -21 -52 9 -53 10 -15 11 56 2 202 28
320 57 105 27 379 114 373 119 -1 1 -41 -4 -88 -11 -629 -103 -1169 -93 -1550
28 -194 61 -387 176 -469 279 -38 46 -36 46 56 -18 127 -90 355 -180 558 -222
215 -44 338 -55 615 -55 371 0 480 14 960 129 643 153 1184 260 1490 295 174
19 270 23 270 11z m1060 -78 c-580 -27 -1435 -237 -2140 -526 -74 -30 -155
-64 -180 -76 l-45 -21 56 0 c144 0 456 33 712 76 200 33 700 135 927 189 372
88 778 157 1100 186 175 17 606 17 735 0 210 -26 379 -70 480 -125 28 -15 42
-25 32 -22 -11 4 -68 15 -127 26 -397 71 -876 45 -1350 -75 -74 -19 -160 -43
-190 -55 l-55 -20 42 5 c24 3 102 13 175 21 187 23 567 23 758 0 138 -16 340
-55 405 -76 28 -9 27 -10 -10 -5 -272 35 -317 38 -530 38 -332 0 -481 -20
-815 -108 -545 -146 -1053 -239 -1690 -311 -233 -26 -266 -31 -259 -38 2 -3
100 -9 216 -16 492 -26 1172 42 1869 185 92 19 169 33 171 31 5 -5 -269 -83
-427 -120 -867 -208 -2083 -249 -3380 -116 -235 25 -582 69 -589 75 -2 3 34 5
82 5 182 0 510 54 822 135 307 80 545 162 898 311 686 290 1395 432 2147 431
124 -1 196 -2 160 -4z m-5483 -827 c388 -253 943 -520 1368 -659 455 -149 872
-217 1505 -248 393 -19 1003 0 1499 47 90 8 165 13 167 11 6 -6 -427 -75 -606
-97 -421 -50 -803 -73 -1245 -73 -353 0 -545 10 -825 44 -770 92 -1412 325
-1814 658 -36 30 -64 56 -63 58 2 1 34 -10 73 -26 75 -32 193 -65 270 -77 l49
-7 -110 80 c-146 107 -269 216 -328 291 -27 34 -46 62 -43 62 3 0 49 -29 103
-64z m6999 35 c-3 -4 -33 -11 -67 -15 -239 -24 -897 -211 -1709 -485 -212 -71
-452 -147 -535 -170 -602 -163 -1256 -215 -1872 -149 l-118 13 110 2 c375 8
995 83 995 121 0 4 -168 8 -372 7 -302 0 -401 3 -518 18 -295 37 -566 97 -857
189 -90 28 -162 53 -160 55 2 1 70 -11 153 -27 812 -158 1703 -100 2728 179
431 117 994 217 1411 251 72 5 148 12 170 13 93 8 646 6 641 -2z m-500 -838
c-16 -8 -107 -51 -203 -94 -765 -347 -1454 -510 -2368 -559 -831 -44 -1721 75
-2650 355 -288 87 -773 260 -762 272 2 1 73 -15 158 -36 1073 -274 2243 -410
3194 -372 899 36 1561 123 2137 281 139 38 457 143 488 161 8 4 20 8 25 8 6 0
-3 -7 -19 -16z"/>
<path d="M7855 4804 c-1190 -240 -1938 -344 -2479 -344 -100 0 -134 -6 -340
-55 -126 -30 -230 -56 -233 -58 -10 -11 333 -19 552 -14 620 16 1079 83 1885
274 371 88 874 231 810 231 -14 0 -101 -16 -195 -34z"/>
<path d="M2076 7447 c-28 -20 -35 -126 -11 -150 22 -23 71 -21 95 3 26 26 27
99 3 128 -24 28 -63 36 -87 19z"/>
<path d="M8705 7326 c-38 -12 -93 -34 -121 -49 l-52 -26 -54 29 c-83 45 -168
63 -268 57 -47 -3 -96 -10 -110 -15 -20 -9 -11 -11 51 -11 139 -2 249 -34 335
-100 l52 -39 32 33 c57 59 177 95 375 111 l80 7 -40 13 c-67 21 -200 16 -280
-10z"/>
<path d="M5123 7058 c-12 -6 -24 -19 -26 -30 -6 -22 15 -102 33 -123 19 -23
64 -18 90 10 55 59 -25 178 -97 143z"/>
<path d="M7620 6967 c-36 -13 -74 -28 -84 -34 -15 -8 -30 -5 -70 15 -40 20
-70 27 -136 30 -47 2 -96 -1 -110 -6 -21 -9 -17 -11 32 -11 85 -1 150 -18 213
-57 l57 -34 29 24 c41 35 121 59 224 66 82 6 87 7 62 18 -46 19 -145 14 -217
-11z"/>
<path d="M4439 6774 c-19 -24 -18 -119 3 -140 45 -45 125 7 114 74 -9 55 -31
82 -70 82 -18 0 -39 -7 -47 -16z"/>
<path d="M9068 6715 c-32 -8 -93 -31 -137 -51 l-80 -36 -33 20 c-71 43 -158
65 -258 64 -52 0 -108 -5 -125 -10 -25 -7 -13 -10 70 -17 127 -9 207 -34 291
-90 l66 -45 30 31 c17 16 43 36 60 45 54 28 182 55 293 61 108 6 109 7 75 21
-50 21 -184 25 -252 7z"/>
</g>
</svg>
